# xmcd
#
# Track frame offsets:
#	150
#	4518
#	19000
#	41764
#	48959
#	67477
#	83600
#	104574
#	120445
#	134161
#	157976
#	159039
#	182484
#	186886
#	208304
#	210611
#
# Disc length: 3036 seconds
#
# Revision: 1
# Processed by: cddbd v1.4PL0 Copyright (c) Steve Scherf et al.
# Submitted via: audiograbber 1.80
#
DISCID=d80bda10
DTITLE=Jaime Ades - A cualquier Lugar Segundo Acto.
DYEAR=1900
DGENRE=
TTITLE0=Hay Dolor, y Existe La Paz(Poesia)
TTITLE1=Creemelo
TTITLE2=Diciembre
TTITLE3=Comentario
TTITLE4=Y ya esta
TTITLE5=De vez en cuando
TTITLE6=No vaya a ser
TTITLE7=La caja negra
TTITLE8=Ese camioncito
TTITLE9=Serena
TTITLE10=Comentario
TTITLE11=Era mayo
TTITLE12=Encore
TTITLE13=Entropia
TTITLE14=Encore
TTITLE15=La mujer del chelo
EXTD=Categoria:\nTrova\nArtista Independiente
EXTT0=Poesia
EXTT1=
EXTT2=
EXTT3=
EXTT4=
EXTT5=
EXTT6=
EXTT7=
EXTT8=
EXTT9=
EXTT10=
EXTT11=
EXTT12=
EXTT13=
EXTT14=
EXTT15=
PLAYORDER=
